# Blender 4.1.0
# www.blender.org
mtllib AbstractArt.mtl
o Abstract-Art_Pointalist-1
v -0.502236 0.551222 0.000000
v 0.502236 -0.551222 -0.000000
v -0.502236 -0.551222 -0.000000
v 0.502236 0.551222 0.000000
v 0.502236 0.551222 0.035000
v -0.502236 0.551222 0.035000
v -0.502236 -0.551222 0.035000
v 0.502236 -0.551222 0.035000
vn -0.0000 -0.0000 -1.0000
vn -0.0000 1.0000 -0.0000
vn -1.0000 -0.0000 -0.0000
vn -0.0000 -1.0000 -0.0000
vn 1.0000 -0.0000 -0.0000
vn -0.0000 -0.0000 1.0000
vt 0.000000 43.403301
vt -39.546200 -0.000000
vt 0.000000 -0.000000
vt -39.546200 43.403301
vt 2.000520 0.967684
vt 1.000520 0.999432
vt 1.000520 0.967684
vt 2.000520 0.999432
vt 0.964287 1.000250
vt 0.999132 0.000251
vt 0.999132 1.000250
vt 0.964287 0.000251
vt 1.000650 -0.999585
vt 0.000646 -0.967838
vt 0.000646 -0.999585
vt 1.000650 -0.967838
vt 0.995718 0.999998
vt 0.960874 -0.000002
vt 0.995718 -0.000002
vt 0.960874 0.999998
vt 1.000000 1.000000
vt 0.000000 0.000000
vt 1.000000 0.000000
vt 0.000000 1.000000
s 1
usemtl BACK
f 1/1/1 2/2/1 3/3/1
f 2/2/1 1/1/1 4/4/1
usemtl Pointalist_Study_1
f 1/5/2 5/6/2 4/7/2
f 5/6/2 1/5/2 6/8/2
f 1/9/3 7/10/3 6/11/3
f 7/10/3 1/9/3 3/12/3
f 2/13/4 7/14/4 3/15/4
f 7/14/4 2/13/4 8/16/4
f 4/17/5 8/18/5 2/19/5
f 8/18/5 4/17/5 5/20/5
f 5/21/6 7/22/6 8/23/6
f 7/22/6 5/21/6 6/24/6
