# Blender 4.1.0
# www.blender.org
mtllib RugRoundBluish.mtl
o round_rug_01
v 0.000000 -0.010105 -0.750000
v 0.000000 0.004895 -0.090884
v 0.146318 -0.010105 -0.735589
v 0.017731 0.004895 -0.089138
v 0.287013 -0.010105 -0.692909
v 0.034781 0.004895 -0.083966
v 0.416678 -0.010105 -0.623602
v 0.050493 0.004895 -0.075567
v 0.530331 -0.010105 -0.530330
v 0.064266 0.004895 -0.064265
v 0.623603 -0.010105 -0.416677
v 0.075568 0.004895 -0.050492
v 0.692910 -0.010105 -0.287012
v 0.083967 0.004895 -0.034780
v 0.735589 -0.010105 -0.146317
v 0.089139 0.004895 -0.017730
v 0.750000 -0.010105 0.000000
v 0.090885 0.004895 0.000000
v 0.735589 -0.010105 0.146318
v 0.089139 0.004895 0.017731
v 0.692910 -0.010105 0.287013
v 0.083967 0.004895 0.034781
v 0.623603 -0.010105 0.416678
v 0.075568 0.004895 0.050493
v 0.530331 -0.010105 0.530331
v 0.064266 0.004895 0.064266
v 0.416678 -0.010105 0.623603
v 0.050493 0.004895 0.075568
v 0.287013 -0.010105 0.692910
v 0.034781 0.004895 0.083967
v 0.146318 -0.010105 0.735589
v 0.017731 0.004895 0.089139
v 0.000000 -0.010105 0.750000
v 0.000000 0.004895 0.090885
v -0.146317 -0.010105 0.735589
v -0.017730 0.004895 0.089139
v -0.287012 -0.010105 0.692910
v -0.034780 0.004895 0.083967
v -0.416677 -0.010105 0.623603
v -0.050493 0.004895 0.075568
v -0.530330 -0.010105 0.530331
v -0.064265 0.004895 0.064266
v -0.623602 -0.010105 0.416678
v -0.075567 0.004895 0.050493
v -0.692909 -0.010105 0.287013
v -0.083966 0.004895 0.034781
v -0.735589 -0.010105 0.146318
v -0.089138 0.004895 0.017731
v -0.750000 -0.010105 0.000000
v -0.090884 0.004895 0.000000
v -0.735589 -0.010105 -0.146317
v -0.089138 0.004895 -0.017730
v -0.692909 -0.010105 -0.287012
v -0.083966 0.004895 -0.034780
v -0.623602 -0.010105 -0.416677
v -0.075567 0.004895 -0.050492
v -0.530330 -0.010105 -0.530330
v -0.064265 0.004895 -0.064265
v -0.416677 -0.010105 -0.623602
v -0.050493 0.004895 -0.075567
v -0.287012 -0.010105 -0.692909
v -0.034780 0.004895 -0.083966
v -0.146317 -0.010105 -0.735589
v -0.017730 0.004895 -0.089138
v 0.101018 0.004895 -0.507851
v 0.000000 0.004895 -0.517800
v 0.198154 0.004895 -0.478385
v 0.287675 0.004895 -0.430535
v 0.366141 0.004895 -0.366140
v 0.430536 0.004895 -0.287674
v 0.478386 0.004895 -0.198153
v 0.507852 0.004895 -0.101017
v 0.517801 0.004895 0.000000
v 0.507852 0.004895 0.101018
v 0.478386 0.004895 0.198154
v 0.430536 0.004895 0.287675
v 0.366141 0.004895 0.366141
v 0.287675 0.004895 0.430536
v 0.198154 0.004895 0.478386
v 0.101018 0.004895 0.507852
v 0.000000 0.004895 0.517801
v -0.101017 0.004895 0.507852
v -0.198153 0.004895 0.478386
v -0.287674 0.004895 0.430536
v -0.366140 0.004895 0.366141
v -0.430535 0.004895 0.287675
v -0.478385 0.004895 0.198154
v -0.507851 0.004895 0.101018
v -0.517800 0.004895 0.000000
v -0.507851 0.004895 -0.101017
v -0.478385 0.004895 -0.198153
v -0.430535 0.004895 -0.287674
v -0.366140 0.004895 -0.366140
v -0.287674 0.004895 -0.430535
v -0.198153 0.004895 -0.478385
v -0.101017 0.004895 -0.507851
v 0.043739 0.004895 -0.219890
v 0.000000 0.004895 -0.224198
v 0.085798 0.004895 -0.207132
v 0.124558 0.004895 -0.186414
v 0.158533 0.004895 -0.158532
v 0.186415 0.004895 -0.124558
v 0.207133 0.004895 -0.085797
v 0.219891 0.004895 -0.043738
v 0.224199 0.004895 0.000000
v 0.219891 0.004895 0.043739
v 0.207133 0.004895 0.085798
v 0.186415 0.004895 0.124559
v 0.158533 0.004895 0.158533
v 0.124558 0.004895 0.186415
v 0.085798 0.004895 0.207133
v 0.043740 0.004895 0.219891
v 0.000000 0.004895 0.224199
v -0.043738 0.004895 0.219891
v -0.085797 0.004895 0.207133
v -0.124558 0.004895 0.186415
v -0.158532 0.004895 0.158533
v -0.186414 0.004895 0.124559
v -0.207132 0.004895 0.085798
v -0.219890 0.004895 0.043740
v -0.224198 0.004895 0.000000
v -0.219890 0.004895 -0.043739
v -0.207132 0.004895 -0.085797
v -0.186414 0.004895 -0.124558
v -0.158532 0.004895 -0.158532
v -0.124558 0.004895 -0.186414
v -0.085797 0.004895 -0.207132
v -0.043738 0.004895 -0.219890
v 0.145436 0.000027 -0.731153
v 0.146318 -0.004607 -0.735589
v 0.000000 -0.004607 -0.750000
v 0.000000 0.000027 -0.745477
v 0.285282 0.000027 -0.688731
v 0.287013 -0.004607 -0.692909
v 0.414166 0.000027 -0.619842
v 0.416678 -0.004607 -0.623602
v 0.527133 0.000027 -0.527132
v 0.530331 -0.004607 -0.530330
v 0.619843 0.000027 -0.414165
v 0.623603 -0.004607 -0.416677
v 0.688732 0.000027 -0.285281
v 0.692910 -0.004607 -0.287012
v 0.731154 0.000027 -0.145435
v 0.735589 -0.004607 -0.146317
v 0.745478 0.000027 0.000000
v 0.750000 -0.004607 0.000000
v 0.731154 0.000027 0.145436
v 0.735589 -0.004607 0.146318
v 0.688732 0.000027 0.285282
v 0.692910 -0.004607 0.287013
v 0.619843 0.000027 0.414166
v 0.623603 -0.004607 0.416678
v 0.527133 0.000027 0.527133
v 0.530331 -0.004607 0.530331
v 0.414166 0.000027 0.619843
v 0.416678 -0.004607 0.623603
v 0.285282 0.000027 0.688732
v 0.287013 -0.004607 0.692910
v 0.145436 0.000027 0.731154
v 0.146318 -0.004607 0.735589
v 0.000000 0.000027 0.745478
v 0.000000 -0.004607 0.750000
v -0.145435 0.000027 0.731154
v -0.146317 -0.004607 0.735589
v -0.285281 0.000027 0.688732
v -0.287012 -0.004607 0.692910
v -0.414165 0.000027 0.619842
v -0.416677 -0.004607 0.623603
v -0.527132 0.000027 0.527133
v -0.530330 -0.004607 0.530331
v -0.619841 0.000027 0.414166
v -0.623602 -0.004607 0.416678
v -0.688731 0.000027 0.285283
v -0.692909 -0.004607 0.287013
v -0.731153 0.000027 0.145436
v -0.735589 -0.004607 0.146318
v -0.745477 0.000027 0.000000
v -0.750000 -0.004607 0.000000
v -0.731153 0.000027 -0.145435
v -0.735589 -0.004607 -0.146317
v -0.688731 0.000027 -0.285282
v -0.692909 -0.004607 -0.287012
v -0.619842 0.000027 -0.414165
v -0.623602 -0.004607 -0.416677
v -0.527132 0.000027 -0.527132
v -0.530330 -0.004607 -0.530330
v -0.414165 0.000027 -0.619842
v -0.416677 -0.004607 -0.623602
v -0.285281 0.000027 -0.688731
v -0.287012 -0.004607 -0.692909
v -0.145435 0.000027 -0.731153
v -0.146317 -0.004607 -0.735589
vn 0.1951 -0.0000 -0.9808
vn 0.3827 -0.0000 -0.9239
vn 0.0043 0.9999 -0.0105
vn 0.0063 0.9999 -0.0094
vn 0.0119 0.9998 -0.0178
vn 0.0082 0.9998 -0.0197
vn 0.0080 0.9999 -0.0080
vn 0.0151 0.9998 -0.0151
vn 0.0094 0.9999 -0.0063
vn 0.0178 0.9998 -0.0119
vn 0.0105 0.9999 -0.0043
vn 0.0197 0.9998 -0.0082
vn 0.0111 0.9999 -0.0022
vn 0.0210 0.9998 -0.0042
vn 0.0114 0.9999 -0.0000
vn 0.0214 0.9998 -0.0000
vn 0.0111 0.9999 0.0022
vn 0.0210 0.9998 0.0042
vn 0.0105 0.9999 0.0043
vn 0.0197 0.9998 0.0082
vn 0.0094 0.9999 0.0063
vn 0.0178 0.9998 0.0119
vn 0.0080 0.9999 0.0080
vn 0.0151 0.9998 0.0151
vn 0.0063 0.9999 0.0094
vn 0.0119 0.9998 0.0178
vn 0.0043 0.9999 0.0105
vn 0.0082 0.9998 0.0197
vn 0.0022 0.9999 0.0111
vn 0.0042 0.9998 0.0210
vn -0.0000 0.9999 0.0114
vn -0.0000 0.9998 0.0214
vn -0.0022 0.9999 0.0111
vn -0.0042 0.9998 0.0210
vn -0.0043 0.9999 0.0105
vn -0.0082 0.9998 0.0197
vn -0.0063 0.9999 0.0094
vn -0.0119 0.9998 0.0178
vn -0.0080 0.9999 0.0080
vn -0.0151 0.9998 0.0151
vn -0.0094 0.9999 0.0063
vn -0.0178 0.9998 0.0119
vn -0.0105 0.9999 0.0043
vn -0.0197 0.9998 0.0082
vn -0.0111 0.9999 0.0022
vn -0.0210 0.9998 0.0042
vn -0.0114 0.9999 -0.0000
vn -0.0214 0.9998 -0.0000
vn -0.0111 0.9999 -0.0022
vn -0.0210 0.9998 -0.0042
vn -0.0105 0.9999 -0.0043
vn -0.0197 0.9998 -0.0082
vn -0.0094 0.9999 -0.0063
vn -0.0178 0.9998 -0.0119
vn -0.0080 0.9999 -0.0080
vn -0.0151 0.9998 -0.0151
vn -0.0063 0.9999 -0.0094
vn -0.0119 0.9998 -0.0178
vn -0.0043 0.9999 -0.0105
vn -0.0082 0.9998 -0.0197
vn -0.0022 0.9999 -0.0111
vn -0.0042 0.9998 -0.0210
vn -0.0000 1.0000 -0.0000
vn -0.0000 0.9999 -0.0114
vn -0.0000 0.9998 -0.0214
vn 0.0022 0.9999 -0.0111
vn -0.0000 -0.0000 -1.0000
vn -0.1951 -0.0000 -0.9808
vn 0.5556 -0.0000 -0.8315
vn 0.7071 -0.0000 -0.7071
vn 0.8315 -0.0000 -0.5556
vn 0.9239 -0.0000 -0.3827
vn 0.9808 -0.0000 -0.1951
vn 1.0000 -0.0000 -0.0000
vn 0.9808 -0.0000 0.1951
vn 0.9239 -0.0000 0.3827
vn 0.8315 -0.0000 0.5556
vn 0.7071 -0.0000 0.7071
vn 0.5556 -0.0000 0.8315
vn 0.3827 -0.0000 0.9239
vn 0.1951 -0.0000 0.9808
vn -0.0000 -0.0000 1.0000
vn -0.1951 -0.0000 0.9808
vn -0.3827 -0.0000 0.9239
vn -0.5556 -0.0000 0.8315
vn -0.7071 -0.0000 0.7071
vn -0.8315 -0.0000 0.5556
vn -0.9239 -0.0000 0.3827
vn -0.9808 -0.0000 0.1951
vn -1.0000 -0.0000 -0.0000
vn -0.9808 -0.0000 -0.1951
vn -0.9239 -0.0000 -0.3827
vn -0.8315 -0.0000 -0.5556
vn -0.7071 -0.0000 -0.7071
vn -0.5556 -0.0000 -0.8315
vn -0.3827 -0.0000 -0.9239
vn 0.0042 0.9998 -0.0210
vn 0.1396 0.6984 -0.7020
vn -0.0000 0.6984 -0.7157
vn 0.2739 0.6984 -0.6612
vn 0.3976 0.6984 -0.5951
vn 0.5061 0.6984 -0.5061
vn 0.5951 0.6984 -0.3976
vn 0.6612 0.6984 -0.2739
vn 0.7020 0.6984 -0.1396
vn 0.7157 0.6984 -0.0000
vn 0.7020 0.6984 0.1396
vn 0.6612 0.6984 0.2739
vn 0.5951 0.6984 0.3976
vn 0.5061 0.6984 0.5061
vn 0.3976 0.6984 0.5951
vn 0.2739 0.6984 0.6612
vn 0.1396 0.6984 0.7020
vn -0.0000 0.6984 0.7157
vn -0.1396 0.6984 0.7020
vn -0.2739 0.6984 0.6612
vn -0.3976 0.6984 0.5951
vn -0.5061 0.6984 0.5061
vn -0.5951 0.6984 0.3976
vn -0.6612 0.6984 0.2739
vn -0.7020 0.6984 0.1396
vn -0.7157 0.6984 -0.0000
vn -0.7020 0.6984 -0.1396
vn -0.6612 0.6984 -0.2739
vn -0.5951 0.6984 -0.3976
vn -0.5061 0.6984 -0.5061
vn -0.3976 0.6984 -0.5951
vn -0.2739 0.6984 -0.6612
vn -0.1396 0.6984 -0.7020
vt 0.595323 0.958726
vt 0.682780 0.932197
vt 0.627545 0.798847
vt 0.683192 0.769103
vt 0.761819 0.886777
vt 0.681704 0.929599
vt 0.731967 0.729074
vt 0.832040 0.829148
vt 0.771995 0.680299
vt 0.889669 0.758927
vt 0.801739 0.624653
vt 0.932492 0.678812
vt 0.820055 0.564272
vt 0.958861 0.591882
vt 0.826240 0.501479
vt 0.967765 0.501479
vt 0.820055 0.438685
vt 0.958861 0.411075
vt 0.801739 0.378305
vt 0.932492 0.324145
vt 0.771995 0.322658
vt 0.889669 0.244030
vt 0.731967 0.273883
vt 0.832040 0.173809
vt 0.683192 0.233854
vt 0.761819 0.116180
vt 0.627545 0.204111
vt 0.681704 0.073358
vt 0.567164 0.185794
vt 0.594775 0.046988
vt 0.504371 0.179610
vt 0.504371 0.038084
vt 0.441577 0.185794
vt 0.413967 0.046988
vt 0.381197 0.204111
vt 0.327037 0.073358
vt 0.325550 0.233854
vt 0.246922 0.116180
vt 0.276775 0.273883
vt 0.176701 0.173809
vt 0.236746 0.322658
vt 0.119072 0.244030
vt 0.207003 0.378305
vt 0.076250 0.324145
vt 0.188686 0.438685
vt 0.049880 0.411075
vt 0.182502 0.501479
vt 0.040976 0.501479
vt 0.188686 0.564272
vt 0.049880 0.591882
vt 0.207003 0.624653
vt 0.076250 0.678812
vt 0.236746 0.680299
vt 0.119072 0.758927
vt 0.276775 0.729074
vt 0.176701 0.829148
vt 0.325550 0.769103
vt 0.246922 0.886777
vt 0.381197 0.798847
vt 0.327037 0.929599
vt 0.441577 0.817163
vt 0.413967 0.955969
vt 0.515392 0.556888
vt 0.504371 0.557973
vt 0.493349 0.556888
vt 0.482751 0.553673
vt 0.472984 0.548452
vt 0.464423 0.541427
vt 0.457397 0.532865
vt 0.452177 0.523098
vt 0.448962 0.512500
vt 0.447876 0.501479
vt 0.448962 0.490457
vt 0.452177 0.479859
vt 0.457397 0.470092
vt 0.464423 0.461531
vt 0.472984 0.454505
vt 0.482751 0.449284
vt 0.493349 0.446070
vt 0.504371 0.444984
vt 0.515392 0.446070
vt 0.525990 0.449284
vt 0.535757 0.454505
vt 0.544319 0.461531
vt 0.551344 0.470092
vt 0.556565 0.479859
vt 0.559780 0.490457
vt 0.560865 0.501479
vt 0.559780 0.512500
vt 0.556565 0.523098
vt 0.551344 0.532865
vt 0.544319 0.541426
vt 0.535757 0.548452
vt 0.525990 0.553673
vt 0.504371 0.823348
vt 0.504371 0.964873
vt 0.504371 0.640842
vt 0.531559 0.638164
vt 0.567164 0.817163
vt 0.504371 0.967684
vt 0.413419 0.958726
vt 0.763381 0.889115
vt 0.834028 0.831136
vt 0.892007 0.760489
vt 0.935089 0.679888
vt 0.961619 0.592431
vt 0.970577 0.501479
vt 0.961619 0.410526
vt 0.935089 0.323069
vt 0.892007 0.242469
vt 0.834028 0.171821
vt 0.763381 0.113843
vt 0.682780 0.070761
vt 0.595323 0.044231
vt 0.504371 0.035273
vt 0.413418 0.044231
vt 0.325962 0.070761
vt 0.245361 0.113843
vt 0.174713 0.171821
vt 0.116735 0.242468
vt 0.073653 0.323069
vt 0.047123 0.410526
vt 0.038165 0.501479
vt 0.047123 0.592431
vt 0.073653 0.679888
vt 0.116735 0.760488
vt 0.174713 0.831136
vt 0.245361 0.889115
vt 0.325962 0.932197
vt 0.594775 0.955969
vt 0.557703 0.630234
vt 0.581797 0.617355
vt 0.602916 0.600024
vt 0.620247 0.578905
vt 0.633126 0.554811
vt 0.641056 0.528667
vt 0.643734 0.501479
vt 0.641056 0.474290
vt 0.633126 0.448146
vt 0.620247 0.424052
vt 0.602916 0.402934
vt 0.581797 0.385602
vt 0.557703 0.372724
vt 0.531559 0.364793
vt 0.504371 0.362115
vt 0.477182 0.364793
vt 0.451039 0.372724
vt 0.426944 0.385602
vt 0.405826 0.402934
vt 0.388494 0.424052
vt 0.375616 0.448146
vt 0.367685 0.474290
vt 0.365007 0.501479
vt 0.367685 0.528667
vt 0.375616 0.554811
vt 0.388494 0.578905
vt 0.405826 0.600024
vt 0.426944 0.617355
vt 0.451039 0.630234
vt 0.477182 0.638164
s 1
usemtl round_rug_01
f 3/1/1 130/1/1 134/2/2 5/2/2
f 67/3/3 68/4/4 135/5/5 133/6/6
f 68/4/4 69/7/7 137/8/8 135/5/5
f 69/7/7 70/9/9 139/10/10 137/8/8
f 70/9/9 71/11/11 141/12/12 139/10/10
f 71/11/11 72/13/13 143/14/14 141/12/12
f 72/13/13 73/15/15 145/16/16 143/14/14
f 73/15/15 74/17/17 147/18/18 145/16/16
f 74/17/17 75/19/19 149/20/20 147/18/18
f 75/19/19 76/21/21 151/22/22 149/20/20
f 76/21/21 77/23/23 153/24/24 151/22/22
f 77/23/23 78/25/25 155/26/26 153/24/24
f 78/25/25 79/27/27 157/28/28 155/26/26
f 79/27/27 80/29/29 159/30/30 157/28/28
f 80/29/29 81/31/31 161/32/32 159/30/30
f 81/31/31 82/33/33 163/34/34 161/32/32
f 82/33/33 83/35/35 165/36/36 163/34/34
f 83/35/35 84/37/37 167/38/38 165/36/36
f 84/37/37 85/39/39 169/40/40 167/38/38
f 85/39/39 86/41/41 171/42/42 169/40/40
f 86/41/41 87/43/43 173/44/44 171/42/42
f 87/43/43 88/45/45 175/46/46 173/44/44
f 88/45/45 89/47/47 177/48/48 175/46/46
f 89/47/47 90/49/49 179/50/50 177/48/48
f 90/49/49 91/51/51 181/52/52 179/50/50
f 91/51/51 92/53/53 183/54/54 181/52/52
f 92/53/53 93/55/55 185/56/56 183/54/54
f 93/55/55 94/57/57 187/58/58 185/56/56
f 94/57/57 95/59/59 189/60/60 187/58/58
f 95/59/59 96/61/61 191/62/62 189/60/60
f 4/63/63 2/64/63 64/65/63 62/66/63 60/67/63 58/68/63 56/69/63 54/70/63 52/71/63 50/72/63 48/73/63 46/74/63 44/75/63 42/76/63 40/77/63 38/78/63 36/79/63 34/80/63 32/81/63 30/82/63 28/83/63 26/84/63 24/85/63 22/86/63 20/87/63 18/88/63 16/89/63 14/90/63 12/91/63 10/92/63 8/93/63 6/94/63
f 96/61/61 66/95/64 132/96/65 191/62/62
f 98/97/63 97/98/63 65/99/66 66/95/64
f 1/100/67 131/100/67 130/1/1 3/1/1
f 63/101/68 192/101/68 131/100/67 1/100/67
f 7/102/69 136/102/69 138/103/70 9/103/70
f 9/103/70 138/103/70 140/104/71 11/104/71
f 11/104/71 140/104/71 142/105/72 13/105/72
f 13/105/72 142/105/72 144/106/73 15/106/73
f 15/106/73 144/106/73 146/107/74 17/107/74
f 17/107/74 146/107/74 148/108/75 19/108/75
f 19/108/75 148/108/75 150/109/76 21/109/76
f 21/109/76 150/109/76 152/110/77 23/110/77
f 23/110/77 152/110/77 154/111/78 25/111/78
f 25/111/78 154/111/78 156/112/79 27/112/79
f 27/112/79 156/112/79 158/113/80 29/113/80
f 29/113/80 158/113/80 160/114/81 31/114/81
f 31/114/81 160/114/81 162/115/82 33/115/82
f 33/115/82 162/115/82 164/116/83 35/116/83
f 35/116/83 164/116/83 166/117/84 37/117/84
f 37/117/84 166/117/84 168/118/85 39/118/85
f 39/118/85 168/118/85 170/119/86 41/119/86
f 41/119/86 170/119/86 172/120/87 43/120/87
f 43/120/87 172/120/87 174/121/88 45/121/88
f 45/121/88 174/121/88 176/122/89 47/122/89
f 47/122/89 176/122/89 178/123/90 49/123/90
f 49/123/90 178/123/90 180/124/91 51/124/91
f 51/124/91 180/124/91 182/125/92 53/125/92
f 53/125/92 182/125/92 184/126/93 55/126/93
f 55/126/93 184/126/93 186/127/94 57/127/94
f 57/127/94 186/127/94 188/128/95 59/128/95
f 59/128/95 188/128/95 190/129/96 61/129/96
f 61/129/96 190/129/96 192/101/68 63/101/68
f 5/2/2 134/2/2 136/102/69 7/102/69
f 65/99/66 67/3/3 133/6/6 129/130/97
f 97/98/63 99/131/63 67/3/3 65/99/66
f 99/131/63 100/132/63 68/4/4 67/3/3
f 100/132/63 101/133/63 69/7/7 68/4/4
f 101/133/63 102/134/63 70/9/9 69/7/7
f 102/134/63 103/135/63 71/11/11 70/9/9
f 103/135/63 104/136/63 72/13/13 71/11/11
f 104/136/63 105/137/63 73/15/15 72/13/13
f 105/137/63 106/138/63 74/17/17 73/15/15
f 106/138/63 107/139/63 75/19/19 74/17/17
f 107/139/63 108/140/63 76/21/21 75/19/19
f 108/140/63 109/141/63 77/23/23 76/21/21
f 109/141/63 110/142/63 78/25/25 77/23/23
f 110/142/63 111/143/63 79/27/27 78/25/25
f 111/143/63 112/144/63 80/29/29 79/27/27
f 112/144/63 113/145/63 81/31/31 80/29/29
f 113/145/63 114/146/63 82/33/33 81/31/31
f 114/146/63 115/147/63 83/35/35 82/33/33
f 115/147/63 116/148/63 84/37/37 83/35/35
f 116/148/63 117/149/63 85/39/39 84/37/37
f 117/149/63 118/150/63 86/41/41 85/39/39
f 118/150/63 119/151/63 87/43/43 86/41/41
f 119/151/63 120/152/63 88/45/45 87/43/43
f 120/152/63 121/153/63 89/47/47 88/45/45
f 121/153/63 122/154/63 90/49/49 89/47/47
f 122/154/63 123/155/63 91/51/51 90/49/49
f 123/155/63 124/156/63 92/53/53 91/51/51
f 124/156/63 125/157/63 93/55/55 92/53/53
f 125/157/63 126/158/63 94/57/57 93/55/55
f 126/158/63 127/159/63 95/59/59 94/57/57
f 127/159/63 128/160/63 96/61/61 95/59/59
f 128/160/63 98/97/63 66/95/64 96/61/61
f 2/64/63 4/63/63 97/98/63 98/97/63
f 4/63/63 6/94/63 99/131/63 97/98/63
f 6/94/63 8/93/63 100/132/63 99/131/63
f 8/93/63 10/92/63 101/133/63 100/132/63
f 10/92/63 12/91/63 102/134/63 101/133/63
f 12/91/63 14/90/63 103/135/63 102/134/63
f 14/90/63 16/89/63 104/136/63 103/135/63
f 16/89/63 18/88/63 105/137/63 104/136/63
f 18/88/63 20/87/63 106/138/63 105/137/63
f 20/87/63 22/86/63 107/139/63 106/138/63
f 22/86/63 24/85/63 108/140/63 107/139/63
f 24/85/63 26/84/63 109/141/63 108/140/63
f 26/84/63 28/83/63 110/142/63 109/141/63
f 28/83/63 30/82/63 111/143/63 110/142/63
f 30/82/63 32/81/63 112/144/63 111/143/63
f 32/81/63 34/80/63 113/145/63 112/144/63
f 34/80/63 36/79/63 114/146/63 113/145/63
f 36/79/63 38/78/63 115/147/63 114/146/63
f 38/78/63 40/77/63 116/148/63 115/147/63
f 40/77/63 42/76/63 117/149/63 116/148/63
f 42/76/63 44/75/63 118/150/63 117/149/63
f 44/75/63 46/74/63 119/151/63 118/150/63
f 46/74/63 48/73/63 120/152/63 119/151/63
f 48/73/63 50/72/63 121/153/63 120/152/63
f 50/72/63 52/71/63 122/154/63 121/153/63
f 52/71/63 54/70/63 123/155/63 122/154/63
f 54/70/63 56/69/63 124/156/63 123/155/63
f 56/69/63 58/68/63 125/157/63 124/156/63
f 58/68/63 60/67/63 126/158/63 125/157/63
f 60/67/63 62/66/63 127/159/63 126/158/63
f 62/66/63 64/65/63 128/160/63 127/159/63
f 64/65/63 2/64/63 98/97/63 128/160/63
f 130/1/98 131/100/99 132/96/99 129/130/98
f 134/2/100 130/1/98 129/130/98 133/6/100
f 136/102/101 134/2/100 133/6/100 135/5/101
f 138/103/102 136/102/101 135/5/101 137/8/102
f 140/104/103 138/103/102 137/8/102 139/10/103
f 142/105/104 140/104/103 139/10/103 141/12/104
f 144/106/105 142/105/104 141/12/104 143/14/105
f 146/107/106 144/106/105 143/14/105 145/16/106
f 148/108/107 146/107/106 145/16/106 147/18/107
f 150/109/108 148/108/107 147/18/107 149/20/108
f 152/110/109 150/109/108 149/20/108 151/22/109
f 154/111/110 152/110/109 151/22/109 153/24/110
f 156/112/111 154/111/110 153/24/110 155/26/111
f 158/113/112 156/112/111 155/26/111 157/28/112
f 160/114/113 158/113/112 157/28/112 159/30/113
f 162/115/114 160/114/113 159/30/113 161/32/114
f 164/116/115 162/115/114 161/32/114 163/34/115
f 166/117/116 164/116/115 163/34/115 165/36/116
f 168/118/117 166/117/116 165/36/116 167/38/117
f 170/119/118 168/118/117 167/38/117 169/40/118
f 172/120/119 170/119/118 169/40/118 171/42/119
f 174/121/120 172/120/119 171/42/119 173/44/120
f 176/122/121 174/121/120 173/44/120 175/46/121
f 178/123/122 176/122/121 175/46/121 177/48/122
f 180/124/123 178/123/122 177/48/122 179/50/123
f 182/125/124 180/124/123 179/50/123 181/52/124
f 184/126/125 182/125/124 181/52/124 183/54/125
f 186/127/126 184/126/125 183/54/125 185/56/126
f 188/128/127 186/127/126 185/56/126 187/58/127
f 190/129/128 188/128/127 187/58/127 189/60/128
f 192/101/129 190/129/128 189/60/128 191/62/129
f 131/100/99 192/101/129 191/62/129 132/96/99
f 65/99/66 129/130/97 132/96/65 66/95/64
